<?xml version="1.0" encoding="UTF-8"?>
<svg width="113px" height="75px" viewBox="0 0 113 75" version="1.1" xmlns="http://www.w3.org/2000/svg" xmlns:xlink="http://www.w3.org/1999/xlink">
    <!-- Generator: Sketch 46.2 (44496) - http://www.bohemiancoding.com/sketch -->
    <title>Group 2@2x</title>
    <desc>Created with Sketch.</desc>
    <defs></defs>
    <g id="Checkout" stroke="none" stroke-width="1" fill="none" fill-rule="evenodd">
        <g id="templates/checkout/shipping/items-added" transform="translate(-105.000000, -142.000000)" fill="#4E439B">
            <g id="[general]/pw-sheet/--dialog/image" transform="translate(12.000000, 111.000000)">
                <g id="Group-2" transform="translate(93.000000, 31.000000)">
                    <path d="M70.1528085,62.0356707 C67.0400899,69.4850625 55.8428134,75 42.5065951,75 C26.7628374,75 14,67.3141484 14,57.8331699 C14,51.8458113 19.0899257,46.5743643 26.8061766,43.5024227 C22.3477405,38.9921563 19.6407767,33.0583934 19.6407767,26.5577866 C19.6407767,12.4426108 32.4036141,1 48.1473718,1 C63.8911296,1 76.653967,12.4426108 76.653967,26.5577866 C76.653967,26.6842697 76.6529422,26.8105382 76.6508996,26.9365858 C76.7186432,26.9359849 76.7864668,26.9356837 76.8543689,26.9356837 C87.9804937,26.9356837 97,35.0221849 97,44.9973897 C97,54.9725944 87.9804937,63.0590957 76.8543689,63.0590957 C74.5048781,63.0590957 72.2493262,62.6985002 70.1528085,62.0356707 Z" id="Combined-Shape" fill-opacity="0.100000001"></path>
                    <path d="M83.887681,31.408435 C63.3446466,28.7242888 42.5121724,28.7242888 21.9692845,31.408435 C20.2774914,31.6294469 19.0017586,33.0607141 19.0017586,34.7432746 C19.0017586,35.7041022 19.4239741,36.6181442 20.1603966,37.2511854 C20.9015086,37.8881014 21.8888276,38.1814445 22.8707241,38.055726 C27.0278103,37.5235753 31.1972069,37.1039398 35.3736379,36.7936621 L33.2339828,69.2697788 C33.1728707,70.19645 33.5097931,71.116376 34.1582845,71.7937631 C34.8067759,72.4711502 35.7225776,72.8596431 36.6707672,72.8596431 L69.1860517,72.8596431 C70.1342414,72.8596431 71.0498966,72.4711502 71.6983879,71.7937631 C72.3468793,71.116376 72.6839483,70.19645 72.6228362,69.2699223 L70.483181,36.7938056 C74.6596121,37.1040833 78.8290086,37.5237189 82.9860948,38.0558695 L82.9860948,38.0558695 C83.1352845,38.0749569 83.2844741,38.0844289 83.4330776,38.0844289 C84.2619741,38.0844289 85.0680086,37.7913728 85.6962759,37.2511854 C86.4325517,36.6182877 86.8549138,35.7042457 86.8549138,34.7375341 C86.8552069,33.0607141 85.5794741,31.6294469 83.887681,31.408435 L83.887681,31.408435 Z M70.094819,70.3213073 C69.8566724,70.569874 69.5341121,70.70693 69.1860517,70.70693 L36.6707672,70.70693 C36.3227069,70.70693 36,70.5700175 35.762,70.3213073 C35.524,70.0725972 35.4052931,69.7485422 35.4277155,69.4084135 L36.9399828,46.4530292 L68.9168362,46.4530292 L70.42925,69.4084135 C70.4516724,69.7485422 70.332819,70.0725972 70.094819,70.3213073 L70.094819,70.3213073 Z M68.7751207,44.3001726 L37.0818448,44.3001726 L37.586569,36.6389538 C47.8021034,35.9760617 58.0547155,35.9760617 68.2703966,36.6389538 L68.7751207,44.3001726 L68.7751207,44.3001726 Z M84.2462931,35.6334932 C83.9770776,35.8651252 83.6309224,35.9670203 83.2711379,35.9213827 C63.1371293,33.3438676 42.7195431,33.3438676 22.585681,35.9213827 C22.2263362,35.9668767 21.8798879,35.8649817 21.6105259,35.6334932 C21.3457069,35.4058797 21.1998879,35.0897179 21.1998879,34.7376776 C21.1998879,34.1352049 21.6555172,33.6214241 22.25975,33.5424913 C42.610069,30.8836036 63.2468966,30.8836036 83.5969224,33.5424913 C84.2011552,33.6214241 84.6567845,34.1352049 84.6567845,34.7434181 C84.656931,35.0897179 84.5111121,35.4058797 84.2462931,35.6334932 Z M67.1012069,56.7882048 L67.7820862,67.1215146 C67.8212155,67.7146588 67.3617759,68.226574 66.7560776,68.2648923 C66.7320431,68.2664709 66.7080086,68.2671885 66.6842672,68.2671885 C66.1094914,68.2671885 65.6260172,67.8297572 65.5885,67.2600058 L64.9076207,56.926696 C64.8684914,56.3335518 65.327931,55.8216366 65.9336293,55.7833183 C66.5405,55.7445695 67.0622241,56.194917 67.1012069,56.7882048 Z M65.7007586,53.3415676 C65.1259828,53.3415676 64.6425086,52.9041363 64.6049914,52.3343849 L64.45375,50.0377271 C64.4146207,49.4445828 64.8740603,48.9326677 65.4797586,48.8943494 C66.0880948,48.8557441 66.6083534,49.3059481 66.6473362,49.8992359 L66.7985776,52.1958937 C66.8377069,52.7890379 66.3782672,53.3009531 65.772569,53.3392714 C65.7485345,53.34085 65.7245,53.3415676 65.7007586,53.3415676 Z" id="Combined-Shape"></path>
                    <path d="M80.1734687,18.4917635 L83.9601257,17.0382021 C83.9601257,17.0382021 84.6283574,16.781692 84.8820062,17.4424697 C85.135655,18.1032474 84.4674233,18.3597576 84.4674233,18.3597576 L80.8024666,19.7666026 L83.2336202,20.7985661 C83.2336202,20.7985661 83.8924928,21.0782409 83.6159377,21.7297639 C83.3393826,22.3812869 82.68051,22.1016121 82.68051,22.1016121 L78.7272747,20.4235633 C78.7272747,20.4235633 78.3875789,20.2793709 78.2983928,19.956864 C78.1385158,19.662918 78.2827081,19.3232223 78.2827081,19.3232223 L79.9607569,15.3699869 C79.9607569,15.3699869 80.2404317,14.7111144 80.8919547,14.9876695 C81.5434777,15.2642246 81.2638029,15.9230971 81.2638029,15.9230971 L80.1734687,18.4917635 Z M87.9585963,17.2975179 L92.1431632,18.2636013 C92.1431632,18.2636013 92.840591,18.4246152 92.6813732,19.1142634 C92.5221553,19.8039115 91.8247275,19.6428976 91.8247275,19.6428976 L87.6401606,18.6768142 C87.6401606,18.6768142 86.9427328,18.5158003 87.1019506,17.8261522 C87.2611684,17.136504 87.9585963,17.2975179 87.9585963,17.2975179 Z M95.2382255,19.7479105 L98.8400122,22.0869381 C98.8400122,22.0869381 99.44031,22.4767761 99.0548206,23.0703777 C98.6693312,23.6639793 98.0690334,23.2741413 98.0690334,23.2741413 L94.4672467,20.9351137 C94.4672467,20.9351137 93.866949,20.5452758 94.2524384,19.9516742 C94.6379277,19.3580726 95.2382255,19.7479105 95.2382255,19.7479105 Z M101.246616,23.9773796 L104.064152,27.2185842 C104.064152,27.2185842 104.533741,27.758785 103.999566,28.2231362 C103.465391,28.6874874 102.995802,28.1472866 102.995802,28.1472866 L100.178266,24.906082 C100.178266,24.906082 99.7086766,24.3658813 100.242852,23.9015301 C100.777026,23.4371789 101.246616,23.9773796 101.246616,23.9773796 Z M106.552811,30.5684086 L108.634893,34.3245838 C108.634893,34.3245838 108.981907,34.950613 108.362861,35.2937558 C107.743815,35.6368986 107.396801,35.0108694 107.396801,35.0108694 L105.314719,31.2546942 C105.314719,31.2546942 104.967706,30.628665 105.586752,30.2855222 C106.205798,29.9423794 106.552811,30.5684086 106.552811,30.5684086 Z M109.942815,37.6529409 L111.126578,41.7812121 C111.126578,41.7812121 111.323872,42.4692573 110.643501,42.6643503 C109.963131,42.8594433 109.765837,42.1713981 109.765837,42.1713981 L108.582075,38.0431269 C108.582075,38.0431269 108.384781,37.3550817 109.065151,37.1599887 C109.745521,36.9648957 109.942815,37.6529409 109.942815,37.6529409 Z M111.63948,44.6269819 L112.088392,48.8980936 C112.088392,48.8980936 112.16321,49.6099456 111.459299,49.6839296 C110.755387,49.7579137 110.680569,49.0460618 110.680569,49.0460618 L110.231657,44.77495 C110.231657,44.77495 110.156838,44.0630981 110.86075,43.989114 C111.564661,43.9151299 111.63948,44.6269819 111.63948,44.6269819 Z M26.442058,19.1622872 C26.442058,19.1622872 27.1490187,19.2742588 27.0382961,19.9733335 C26.9275736,20.6724082 26.2206129,20.5604366 26.2206129,20.5604366 L21.9788488,19.8886072 C21.9788488,19.8886072 21.2718881,19.7766356 21.3826107,19.0775609 C21.4933332,18.3784862 22.2002939,18.4904578 22.2002939,18.4904578 L26.442058,19.1622872 Z M18.3431143,19.5754357 C18.3431143,19.5754357 18.991825,19.2729369 19.2909495,19.9144114 C19.5900739,20.5558858 18.9413633,20.8583846 18.9413633,20.8583846 L15.0490992,22.6733771 C15.0490992,22.6733771 14.4003885,22.9758759 14.1012641,22.3344014 C13.8021396,21.6929269 14.4508503,21.3904282 14.4508503,21.3904282 L18.3431143,19.5754357 Z M11.7320277,23.4858013 C11.7320277,23.4858013 12.2381557,22.9796734 12.7386379,23.4801556 C13.2391202,23.9806378 12.7329922,24.4867658 12.7329922,24.4867658 L9.69622438,27.5235336 C9.69622438,27.5235336 9.19009642,28.0296616 8.68961419,27.5291793 C8.18913196,27.0286971 8.69525993,26.5225691 8.69525993,26.5225691 L11.7320277,23.4858013 Z M6.73429123,28.872061 C6.73429123,28.872061 7.08130489,28.2460318 7.70035088,28.5891746 C8.31939687,28.9323174 7.97238322,29.5583466 7.97238322,29.5583466 L5.8903013,33.3145218 C5.8903013,33.3145218 5.54328765,33.940551 4.92424165,33.5974082 C4.30519566,33.2542654 4.65220931,32.6282362 4.65220931,32.6282362 L6.73429123,28.872061 Z M2.91440079,36.4222803 C2.91440079,36.4222803 3.12367257,35.7377831 3.80053432,35.9447205 C4.47739607,36.1516579 4.26812429,36.8361551 4.26812429,36.8361551 L3.01249359,40.943138 C3.01249359,40.943138 2.80322181,41.6276352 2.12636006,41.4206978 C1.44949831,41.2137604 1.65877009,40.5292632 1.65877009,40.5292632 L2.91440079,36.4222803 Z M1.07143373,44.0568199 C1.07143373,44.0568199 1.12136354,43.3427905 1.82742815,43.3921633 C2.53349277,43.4415362 2.48356297,44.1555656 2.48356297,44.1555656 L2.18398415,48.4397423 C2.18398415,48.4397423 2.13405435,49.1537718 1.42798973,49.1043989 C0.721925115,49.0550261 0.771854917,48.3409966 0.771854917,48.3409966 L1.07143373,44.0568199 Z M0.861830111,51.2312178 C0.861830111,51.2312178 0.787011456,50.5193658 1.49092287,50.4453818 C2.19483428,50.3713977 2.26965294,51.0832496 2.26965294,51.0832496 L2.71856487,55.3543614 C2.71856487,55.3543614 2.79338352,56.0662133 2.08947211,56.1401974 C1.3855607,56.2141815 1.31074204,55.5023295 1.31074204,55.5023295 L0.861830111,51.2312178 Z" id="Combined-Shape"></path>
                    <path d="M25.9093479,17.6426827 C26.2417808,17.6045614 26.5027259,17.8655065 26.5027259,17.8655065 L29.5394937,20.9022743 C29.5394937,20.9022743 30.0456216,21.4084022 29.5451394,21.9088845 C29.0446572,22.4093667 28.5385292,21.9032387 28.5385292,21.9032387 L25.9093479,19.2740574 L23.2801665,21.9032387 C23.2801665,21.9032387 22.7740386,22.4093667 22.2735563,21.9088845 C21.7730741,21.4084022 22.2792021,20.9022743 22.2792021,20.9022743 L25.3159699,17.8655065 C25.3159699,17.8655065 25.5769149,17.6045614 25.9093479,17.6426827 Z" id="Combined-Shape" transform="translate(25.909348, 19.884373) rotate(-259.000000) translate(-25.909348, -19.884373) "></path>
                    <path d="M69.6903148,13.2797755 L65.8903148,13.2797755 C65.5407445,13.2797755 65.2570062,13.5635137 65.2570062,13.9130841 L65.2570062,22.7797755 C65.2570062,23.1293458 65.5407445,23.4130841 65.8903148,23.4130841 L69.6903148,23.4130841 C70.0398851,23.4130841 70.3236234,23.1293458 70.3236234,22.7797755 L70.3236234,13.9131583 C70.3236234,13.5635137 70.0398851,13.2797755 69.6903148,13.2797755 L69.6903148,13.2797755 Z M69.0570062,22.1464669 L66.5236976,22.1464669 L66.5236976,14.5464669 L69.0570062,14.5464669 L69.0570062,22.1464669 L69.0570062,22.1464669 Z" id="Shape" transform="translate(67.790315, 18.346430) rotate(19.000000) translate(-67.790315, -18.346430) "></path>
                    <path d="M73.1969021,29.8835685 L73.2207911,5.10735601 C73.2207911,4.04209429 72.3860528,3.20735601 71.3207911,3.20735601 L64.9874825,3.20735601 C63.9399591,3.20735601 63.0874825,4.05983257 63.0874825,5.10735601 L63.0874825,26.6366287 L67.1004274,31.3724998 L73.1969021,29.8835685 Z M67.3664979,31.2093607 L64.3540997,27.9068254 L64.3540997,8.27404741 L70.0540997,8.27404741 C70.40367,8.27404741 70.6874083,7.99030913 70.6874083,7.64073882 C70.6874083,7.29116851 70.40367,7.00735601 70.0540997,7.00735601 L64.3540997,7.00735601 L64.3540997,5.10735601 C64.3540997,4.75207085 64.6321231,4.47404741 64.9874083,4.47404741 L71.3207169,4.47404741 C71.6817169,4.47404741 71.9540255,4.74635601 71.9540255,5.10735601 L71.9540255,30.1403121 L67.3664979,31.2093607 Z" id="Shape" transform="translate(68.154137, 17.289928) rotate(19.000000) translate(-68.154137, -17.289928) "></path>
                    <path d="M36.2751235,7.61466326 C35.9340011,7.75248565 35.547001,7.59080048 35.4107346,7.25352932 C35.2744682,6.91625816 35.4405368,6.53111874 35.7816592,6.39329634 C36.1227816,6.25547395 36.5097817,6.41715912 36.6460481,6.75443028 C36.7823144,7.09170144 36.6162458,7.47684086 36.2751235,7.61466326 Z M41.7096601,6.83955819 C41.3685377,6.97738058 40.9815376,6.81569541 40.8452712,6.47842425 C40.7090048,6.14115309 40.8750734,5.75601367 41.2161958,5.61819128 C41.5573182,5.48036888 41.9443183,5.64205405 42.0805847,5.97932521 C42.216851,6.31659637 42.0507824,6.7017358 41.7096601,6.83955819 Z M38.4988885,6.00583413 C38.1577662,6.14365652 37.7707661,5.98197135 37.6344997,5.64470019 C37.4982333,5.30742903 37.6643019,4.92228961 38.0054243,4.78446722 C38.3465467,4.64664482 38.7335467,4.80833 38.8698131,5.14560116 C39.0060795,5.48287232 38.8400109,5.86801174 38.4988885,6.00583413 Z M42.822356,4.25903991 C42.4812336,4.3968623 42.0942335,4.23517713 41.9579671,3.89790597 C41.8217007,3.56063481 41.9877693,3.17549539 42.3288917,3.037673 C42.6700141,2.8998506 43.0570142,3.06153578 43.1932806,3.39880694 C43.3295469,3.7360781 43.1634783,4.12121752 42.822356,4.25903991 Z M38.8681085,8.69798923 C38.5269861,8.83581163 38.1399861,8.67412646 38.0037197,8.3368553 C37.8674533,7.99958414 38.0335219,7.61444471 38.3746443,7.47662232 C38.7157667,7.33879993 39.1027667,7.5004851 39.2390331,7.83775626 C39.3752995,8.17502742 39.2092309,8.56016684 38.8681085,8.69798923 Z" id="Combined-Shape"></path>
                    <path d="M46.5248092,9.8666996 L47.142466,9.61715009 C48.164025,9.20441342 48.6633167,8.04647697 48.2552397,7.03645116 C47.8471628,6.02642535 46.6836323,5.54031268 45.6620732,5.95304935 L45.2179621,6.13248184 L44.4794704,0.748043395 L31.7795037,5.87916299 L34.9886224,10.2654034 L34.5445114,10.4448359 C33.5229523,10.8575725 33.0236607,12.015509 33.4317376,13.0255348 C33.8398145,14.0355606 35.0033451,14.5216733 36.0249042,14.1089366 L36.6425609,13.8593871 L37.3827573,15.6914375 C33.2957427,17.3426985 31.2991215,21.9731798 32.93174,26.0140525 L35.0379602,31.2271304 C35.2477018,31.746259 44.6845138,30.4654699 48.2552397,30.3996679 C56.6368961,30.2452092 63.4424423,30.3996679 63.4424423,30.3996679 L57.6375684,16.0321008 C56.0048719,11.9914087 51.3520981,10.0473082 47.2649538,11.6986217 L46.5248092,9.8666996 Z M38.0052946,4.78451962 L42.328762,3.0377254 L43.3905297,2.60874339 L43.9443856,6.64704016 L38.8679788,8.69804164 L36.262199,9.75084504 L33.8553729,6.46119682 L38.0052946,4.78451962 L38.0052946,4.78451962 Z M35.5315696,12.8875173 C35.1905744,13.0252883 34.8033964,12.8635288 34.6671808,12.5263833 C34.5309652,12.1892379 34.6971101,11.8039214 35.0381054,11.6661504 L35.7910448,11.3619431 L45.403506,7.47825668 L46.1557968,7.17431145 C46.4967921,7.03654041 46.8839701,7.1982999 47.0201857,7.53544539 C47.1564013,7.87259088 46.9902564,8.25790733 46.6492611,8.39567836 L46.0316044,8.64522788 L36.1493561,12.6379154 L35.5315696,12.8875173 L35.5315696,12.8875173 Z M36.3654987,30.955923 L34.1671314,25.5147728 C32.806685,22.1475499 34.4706269,18.2886048 37.8762995,16.9126237 L39.1116129,16.4135247 L37.8779523,13.3601074 L45.2897034,10.3655656 L46.523364,13.4189829 L47.7586775,12.9198838 C51.1643501,11.5439028 55.0419382,13.1639245 56.4023846,16.5311474 L61.8447825,30.0015549 L36.3654987,30.955923 Z" id="Combined-Shape"></path>
                    <path d="M34.9089806,23.7943069 L50.3501395,17.5556737 L50.8436037,18.7770406 L35.4024449,25.0156738 L34.9089806,23.7943069 Z M52.2029799,16.8070776 L54.6736069,15.8088795 L55.1670711,17.0302464 L52.6964442,18.0284445 L52.2029799,16.8070776 Z" id="Combined-Shape"></path>
                </g>
            </g>
        </g>
    </g>
</svg>