<svg width="127" height="115" viewBox="0 0 127 115" xmlns="http://www.w3.org/2000/svg"><title>artwork</title><g fill="#4E439B" fill-rule="evenodd"><path d="M25.478 61.3C12.913 66.366 4.573 75.291 4.573 85.455c0 15.785 20.114 28.58 44.927 28.58s44.927-12.795 44.927-28.58c0-5.446-2.395-10.537-6.55-14.869C109.946 68.777 127 56.777 127 42.242c0-15.784-20.115-28.58-44.927-28.58-7.503 0-14.577 1.17-20.794 3.239a71 71 0 0 0-4.588-3.497C36.366-.827 12.55-1.883 3.496 11.047c-9.054 12.93.084 34.95 20.409 49.182.522.365 1.047.722 1.573 1.07z" fill-opacity=".099"/><path d="M105.88 56.708c2.24.294 3.928 2.196 3.928 4.425a4.41 4.41 0 0 1-1.534 3.342 4.584 4.584 0 0 1-3.587 1.07 311.558 311.558 0 0 0-16.547-1.678l2.831 43.174a4.456 4.456 0 0 1-1.223 3.355 4.61 4.61 0 0 1-3.325 1.417H43.388a4.61 4.61 0 0 1-3.326-1.417 4.456 4.456 0 0 1-1.223-3.355l2.832-43.174c-5.528.412-11.046.97-16.548 1.678a4.595 4.595 0 0 1-3.587-1.07 4.405 4.405 0 0 1-1.534-3.334c0-2.237 1.689-4.14 3.928-4.433a315.02 315.02 0 0 1 81.95 0zm-18.255 51.73a1.59 1.59 0 0 0 .443-1.213l-2.002-30.517H43.744l-2.001 30.517c-.03.452.127.883.442 1.214.315.33.742.513 1.203.513h43.035c.46 0 .887-.183 1.202-.513zM85.88 73.847l-.668-10.185a312.243 312.243 0 0 0-40.611 0l-.668 10.185H85.88zm20.476-11.521c.35-.303.544-.723.544-1.184 0-.808-.603-1.491-1.403-1.596a312.07 312.07 0 0 0-81.182 0 1.61 1.61 0 0 0-1.402 1.589c0 .468.193.888.543 1.19.357.308.815.444 1.29.383a315.064 315.064 0 0 1 80.32 0c.476.06.934-.075 1.29-.382z"/><path d="M83.663 90.448l.902 13.737a1.44 1.44 0 0 1-1.453 1.523 1.444 1.444 0 0 1-1.45-1.339l-.902-13.737a1.44 1.44 0 0 1 1.358-1.52 1.445 1.445 0 0 1 1.545 1.336zm-1.853-4.582c-.76 0-1.4-.582-1.45-1.34l-.2-3.052a1.44 1.44 0 0 1 1.357-1.52 1.444 1.444 0 0 1 1.546 1.336l.2 3.053a1.44 1.44 0 0 1-1.453 1.523zM61 49.875c0-.583.333-.875 1-.875s1 .292 1 .875v5.25c0 .583-.333.875-1 .875s-1-.292-1-.875v-5.25zm-1.65-10.573s-.224-.975.75-1.2c.975-.224 1.2.75 1.2.75l1.35 5.846s.224.975-.75 1.2c-.975.224-1.2-.75-1.2-.75l-1.35-5.846zm-4.823-9.273s-.544-.839.294-1.384c.84-.544 1.384.294 1.384.294l3.268 5.032s.544.839-.294 1.384c-.84.544-1.384-.294-1.384-.294l-3.268-5.032zm-8.662-5.445s-.899-.439-.46-1.337c.438-.9 1.337-.46 1.337-.46l5.393 2.63s.899.438.46 1.336c-.438.9-1.337.46-1.337.46l-5.393-2.63zm-9.898-.69s-1-.034-.965-1.034c.035-.999 1.035-.964 1.035-.964l5.996.21s1 .034.965 1.034c-.035.999-1.035.964-1.035.964l-5.996-.21zm-9.974 4.445s-.839.544-1.384-.294c-.544-.84.294-1.384.294-1.384l5.032-3.268s.84-.544 1.384.294c.544.84-.294 1.384-.294 1.384l-5.032 3.268zM22.35 30.97s.07-.998 1.067-.928c.998.07.928 1.068.928 1.068l-.419 5.985s-.07.997-1.067.928c-.998-.07-.928-1.068-.928-1.068l.419-5.985zm1.248 10.179s-.573-.82.246-1.393c.819-.574 1.392.245 1.392.245l3.442 4.915s.573.82-.246 1.393c-.819.574-1.392-.246-1.392-.246l-3.442-4.914zm8.38 7.742s-.933-.358-.574-1.292c.358-.934 1.292-.575 1.292-.575l5.601 2.15s.934.358.575 1.292c-.358.934-1.292.575-1.292.575l-5.601-2.15zm10.466 2.85s-1-.018-.983-1.018c.018-1 1.018-.982 1.018-.982l5.999.105s1 .017.982 1.017c-.017 1-1.017.982-1.017.982l-6-.104zm10.378-.205s-.966.258-1.225-.708c-.259-.965.707-1.224.707-1.224l5.796-1.553s.966-.259 1.224.707c.26.966-.707 1.225-.707 1.225l-5.795 1.553zm11.42-3.49s-.891.454-1.345-.437c-.454-.89.437-1.345.437-1.345l5.346-2.724s.89-.454 1.345.437c.454.891-.437 1.345-.437 1.345l-5.346 2.724zm9.563-5.558s-.766.642-1.408-.124c-.643-.766.123-1.408.123-1.408l4.596-3.857s.766-.643 1.409.123-.123 1.409-.123 1.409l-4.597 3.857zm7.493-6.754s-.642.766-1.408.123c-.766-.642-.124-1.408-.124-1.408l3.857-4.597s.643-.766 1.409-.123.123 1.409.123 1.409L81.3 35.734zm22.062-18.3c-.205-.718-.658-1.484-1.276-2.158-.436-.476-1.812-1.794-3.281-3.064 1.916.31 3.81.517 4.456.545 2.13.093 3.777-.798 3.833-2.073.033-.761-.5-1.455-1.462-1.904-.62-.289-1.373-.46-2.176-.495-.9-.04-3.226.038-5.25.217l-.205.019a2.663 2.663 0 0 0-1.385-3.292 2.663 2.663 0 0 0-3.412 1.055l-.118-.17c-1.164-1.665-2.6-3.496-3.208-4.161-.543-.593-1.159-1.06-1.78-1.349-.961-.448-1.835-.41-2.397.104-.94.862-.564 2.697.876 4.27.437.476 1.812 1.794 3.281 3.063-1.916-.31-3.81-.517-4.456-.545-.913-.04-1.79.106-2.472.41-.847.378-1.33.969-1.36 1.663-.034.761.499 1.455 1.46 1.904h.001c.62.29 1.373.46 2.176.496.9.039 3.226-.039 5.25-.217.386-.034.745-.07 1.08-.11l-2.41 5.172a1.893 1.893 0 0 0 .31 2.065l-3.067 6.575a.738.738 0 0 0 1.338.624l3.066-6.575a1.893 1.893 0 0 0 1.78-1.09l2.411-5.172c.187.282.39.58.612.898 1.165 1.666 2.6 3.497 3.209 4.161.543.593 1.158 1.06 1.778 1.349.962.448 1.836.41 2.398-.104.512-.47.654-1.22.4-2.111zM98.833 9.93c1.871-.147 3.822-.204 4.556-.172.602.027 1.177.154 1.617.36.473.22.614.445.611.502-.008.19-.835.727-2.295.663-1.116-.049-4.844-.529-7.013-1.06l-.02-.014a33.77 33.77 0 0 1 2.544-.28zm-8.17 8.06a.416.416 0 0 1-.202-.552l2.825-6.06c.172-.034.346-.073.515-.119.073.159.155.316.238.47l-2.825 6.06a.416.416 0 0 1-.552.2zM95.99 6.566a1.185 1.185 0 1 1-1.574.573 1.186 1.186 0 0 1 1.574-.573zM87.663 3.98c-.987-1.077-1.107-2.056-.967-2.184.042-.038.304-.075.777.146.44.205.907.563 1.315 1.007.496.542 1.707 2.072 2.797 3.6a33.151 33.151 0 0 1 1.42 2.128l-.022-.006c-1.801-1.32-4.566-3.867-5.32-4.69zm2.162 6.344c-1.871.146-3.822.203-4.556.17-.602-.026-1.176-.153-1.616-.358-.474-.221-.614-.446-.612-.502.002-.045.121-.217.488-.38.47-.21 1.128-.313 1.807-.284 1.116.049 4.844.529 7.013 1.06l.02.014a33.79 33.79 0 0 1-2.544.28zm12.138 8.133c-.041.038-.304.075-.777-.146-.44-.205-.907-.563-1.315-1.007-.496-.542-1.707-2.072-2.797-3.6a33.862 33.862 0 0 1-1.42-2.128l.022.006c1.802 1.32 4.566 3.867 5.32 4.69.46.502.804 1.072.945 1.567.11.386.055.588.022.618z"/></g></svg>